<svg width="155" height="155" viewBox="0 0 155 155" fill="none" xmlns="http://www.w3.org/2000/svg">
<path d="M2.69097 155H21.5278H25.2951H36.059H39.8264H50.5903H53.8194H64.5833H68.3507H79.1146H82.8819H93.6458H96.875H107.639H111.406H122.17H125.938H150.694C152.847 155 155 152.704 155 149.259C155 145.815 152.847 143.519 150.694 143.519H139.931V111.37C139.931 109.074 139.392 109.074 137.778 109.074H121.094C118.941 109.074 118.403 109.648 118.403 111.37V118.259V143.519H107.639V99.8889C107.639 97.5926 107.639 97.5926 105.486 97.5926H88.8021C86.6493 97.5926 86.1111 98.1667 86.1111 100.463V103.333V143.519H75.3472V83.2407C75.3472 80.9444 75.3472 80.3704 73.1945 80.3704H55.9722C53.8194 80.3704 53.8194 80.9444 53.8194 83.2407V87.8333V143.519H43.0556V59.7037C43.0556 57.9815 42.5174 57.4074 40.3646 57.4074H24.2188C22.066 57.4074 21.5278 57.9815 21.5278 60.2778V64.8704V143.519H10.7639V4.01852C10.7639 1.72222 8.07292 0 5.92014 0C2.69097 0 0 1.72222 0 4.01852V152.704C0 154.426 0.538194 155 2.69097 155Z" fill="black"/>
<path d="M45.2084 51.6663C47.3612 51.6663 48.9758 49.9441 48.9758 47.6478V42.4811L131.858 99.8885C132.396 100.463 132.934 100.463 134.01 100.463C135.087 100.463 136.163 99.8885 137.24 98.7404C138.316 97.0181 137.778 94.7218 136.163 93.5737L55.4341 37.8885L57.0487 37.3144C58.1251 36.1663 59.7397 34.4441 59.2015 32.1478C58.6633 29.8515 57.0487 28.7033 54.8959 29.2774L44.132 32.1478C42.5174 32.7218 41.441 34.4441 41.441 36.1663L41.9792 48.2218C41.441 49.9441 43.0556 51.6663 45.2084 51.6663Z" fill="black"/>
</svg>
