<svg width="165" height="155" viewBox="0 0 165 155" fill="none" xmlns="http://www.w3.org/2000/svg">
<path d="M158.654 0H6.34615C2.84308 0 0 3.15636 0 7.04545V119.773C0 123.662 2.84308 126.818 6.34615 126.818H76.1538V140.909H57.1154C53.6123 140.909 50.7692 144.065 50.7692 147.955C50.7692 151.844 53.6123 155 57.1154 155H107.885C111.388 155 114.231 151.844 114.231 147.955C114.231 144.065 111.388 140.909 107.885 140.909H88.8462V126.818H158.654C162.157 126.818 165 123.662 165 119.773V7.04545C165 3.15636 162.157 0 158.654 0ZM129.192 91.5909C129.192 93.539 127.773 95.1136 126.019 95.1136H99.1142C98.0417 95.1136 97.0454 94.5148 96.4584 93.5178C95.8713 92.5244 95.7762 91.2633 96.2077 90.1783C97.0422 88.0682 97.4642 85.8383 97.4642 83.5415C97.4611 74.3824 90.75 66.9318 82.5 66.9318C74.25 66.9318 67.5421 74.3824 67.5421 83.5415C67.5421 85.8383 67.9641 88.0717 68.7955 90.1783C69.2238 91.2703 69.1287 92.5244 68.5448 93.5178C67.9546 94.5148 66.9551 95.1136 65.8858 95.1136H38.9844C37.2329 95.1136 35.8113 93.539 35.8113 91.5909V75.492C35.8113 73.5475 37.2329 71.9693 38.9844 71.9693H48.2593C48.932 69.5069 49.8237 67.1256 50.9215 64.8499L44.3564 57.5649C43.7599 56.9026 43.4267 56.0078 43.4267 55.0743C43.4267 54.1408 43.7599 53.2425 44.3564 52.5837L54.615 41.1983C55.8557 39.8209 57.8611 39.8209 59.1017 41.1983L65.6637 48.4833C67.7135 47.2644 69.8553 46.2781 72.0733 45.5277V35.2273C72.0733 33.2827 73.4948 31.7045 75.2463 31.7045H89.7537C91.5084 31.7045 92.9267 33.2827 92.9267 35.2273V45.5277C95.1415 46.2745 97.2834 47.2644 99.3363 48.4833L105.898 41.1948C107.088 39.8737 109.195 39.8737 110.385 41.1948L120.64 52.5802C121.881 53.9576 121.881 56.184 120.64 57.5614L114.078 64.8499C115.176 67.1256 116.065 69.5069 116.741 71.9693H126.019C127.773 71.9693 129.192 73.5475 129.192 75.492V91.5909Z" fill="black"/>
<path d="M111.207 76.2706C110.477 72.688 109.201 69.285 107.428 66.1533C106.638 64.7583 106.822 62.9476 107.869 61.7851L113.913 55.0708L108.145 48.6665L102.1 55.3808C101.056 56.5468 99.4125 56.7476 98.1655 55.8705C95.3446 53.8977 92.2794 52.4851 89.0556 51.6678C87.6118 51.3015 86.5869 49.8783 86.5869 48.2332V38.75H78.4258V48.2332C78.4258 49.8783 77.4009 51.305 75.9571 51.6678C72.7333 52.4816 69.6681 53.8942 66.844 55.8669C65.5907 56.7476 63.9565 56.5398 62.9094 55.3773L56.8647 48.6665L51.0961 55.0708L57.1408 61.7816C58.1879 62.9441 58.3719 64.7583 57.5818 66.1498C55.8017 69.285 54.5293 72.688 53.7963 76.2706C53.4663 77.8734 52.1844 79.0112 50.7026 79.0112H42.1638V88.0682H61.5926C61.3324 86.5851 61.1991 85.0703 61.1991 83.5415C61.1928 70.4968 70.7501 59.8864 82.5 59.8864C94.2499 59.8864 103.807 70.4968 103.807 83.5415C103.807 85.0739 103.677 86.5851 103.414 88.0682H122.846V79.0148H114.304C112.822 79.0148 111.534 77.8734 111.207 76.2706Z" fill="black"/>
</svg>
