<svg width="155" height="155" viewBox="0 0 155 155" fill="none" xmlns="http://www.w3.org/2000/svg">
<path d="M150.825 15.0334H124.731V3.62876C124.731 1.55518 123.165 0 121.077 0H31.3131C29.2256 0 27.6599 1.55518 27.6599 3.62876V14.515H3.6532C1.56566 14.515 0 16.0702 0 18.1438C0 41.4716 13.0471 76.7224 31.3131 76.7224H31.835C37.0539 87.6087 45.9259 95.903 57.4074 100.569V118.712H46.4478C44.3603 118.712 42.7946 120.268 42.7946 122.341V133.227H110.118V122.341C110.118 120.268 108.552 118.712 106.465 118.712H95.5051V100.569C106.987 95.903 116.38 87.6087 121.077 76.7224C121.599 76.7224 122.121 77.2408 122.643 77.2408C140.909 77.2408 155 41.99 155 18.6622C154.478 16.5886 152.912 15.0334 150.825 15.0334ZM7.82828 22.291H27.6599C27.6599 22.291 28.1818 65.3177 29.2256 69.4649C18.7879 66.3545 8.87205 41.99 7.82828 22.291ZM106.465 39.9164L94.4613 51.8395L97.0707 67.3913C97.0707 67.9097 97.5926 68.4281 97.5926 68.9465C97.5926 71.0201 96.0269 72.5753 93.9394 72.5753C93.4175 72.5753 92.8956 72.5752 92.3737 72.0569L77.2391 64.2809L61.5825 72.5753C61.0606 73.0937 60.5387 73.0937 60.0168 73.0937C59.495 73.0937 58.4512 73.0937 57.9293 72.5753C56.8855 71.5385 56.3636 70.5017 56.3636 68.9465L58.9731 52.3579L46.4478 40.4348C45.9259 39.398 45.404 37.8428 45.9259 36.2876C46.4478 34.7324 47.4916 34.214 49.0572 33.6957L65.7576 31.1037L73.064 16.0702C73.5859 15.0334 74.6296 13.9967 76.1953 13.9967C77.7609 13.9967 78.8047 15.0334 79.3266 16.0702L87.6768 31.1037L104.377 33.6957C105.943 33.6957 106.987 34.7324 107.508 36.2876C108.03 37.3244 107.508 38.8796 106.465 39.9164ZM122.643 69.4649C123.687 65.8361 124.209 22.291 124.209 22.291H146.65C145.606 43.5452 133.081 67.9097 122.643 69.4649ZM121.077 140.485H117.424H110.118H42.7946H34.9663H31.3131C29.2256 140.485 27.6599 142.04 27.6599 144.114V151.371C27.6599 153.445 29.2256 155 31.3131 155H120.556C122.643 155 124.209 153.445 124.209 151.371V144.114C124.731 142.559 122.643 140.485 121.077 140.485Z" fill="black"/>
</svg>
