<svg width="155" height="155" viewBox="0 0 155 155" fill="none" xmlns="http://www.w3.org/2000/svg">
<path d="M102.957 91.8972L101.855 92.9991L30.9982 22.1468L33.2156 19.9294L26.5679 8.86054L8.86054 0L0 8.86054L8.86054 26.5679L19.9294 33.2156L22.1468 30.9982L63.3817 72.2422L0 135.624L19.3761 155L82.7578 91.6183L92.9991 101.855L91.8972 102.966L91.8241 113.971L132.853 155L155 132.853L113.962 91.8241L102.957 91.8972Z" fill="black"/>
<path d="M79.7088 55.9161L99.0837 75.291L100.324 74.0511C105.187 76.2469 110.566 77.4998 116.25 77.4998C137.646 77.4998 155 60.1462 155 38.7499C155 34.8428 154.406 31.0711 153.327 27.5058L129.166 51.6665L109.791 45.2081L103.333 25.8331L127.494 1.67248C123.929 0.594208 120.157 0 116.25 0C94.8533 0 77.4999 17.3536 77.4999 38.7499C77.4999 44.4333 78.7529 49.8129 80.9486 54.6762L79.7088 55.9161Z" fill="black"/>
</svg>
