<svg width="135" height="155" viewBox="0 0 135 155" fill="none" xmlns="http://www.w3.org/2000/svg">
<path d="M67.4999 19.3564C42.6723 19.3564 22.4722 36.755 22.4722 58.1393C22.4722 79.5235 42.6723 96.9221 67.4999 96.9221C92.3274 96.9221 112.527 79.5235 112.527 58.1393C112.527 36.755 92.3274 19.3564 67.4999 19.3564ZM74.4272 73.0557H60.5725C58.6606 73.0557 57.1089 71.7192 57.1089 70.0724C57.1089 68.4257 58.6606 67.0891 60.5725 67.0891H74.4272C76.3426 67.0891 77.8908 68.4257 77.8908 70.0724C77.8908 71.7192 76.3426 73.0557 74.4272 73.0557ZM88.2818 61.1225H46.7179C44.8059 61.1225 43.2542 59.786 43.2542 58.1393C43.2542 56.4925 44.8059 55.156 46.7179 55.156H88.2818C90.1972 55.156 91.7455 56.4925 91.7455 58.1393C91.7455 59.786 90.1972 61.1225 88.2818 61.1225ZM88.2818 49.1894H46.7179C44.8059 49.1894 43.2542 47.8529 43.2542 46.2061C43.2542 44.5593 44.8059 43.2228 46.7179 43.2228H88.2818C90.1972 43.2228 91.7455 44.5593 91.7455 46.2061C91.7455 47.8529 90.1972 49.1894 88.2818 49.1894Z" fill="black"/>
<path d="M129.569 58.1384C129.569 56.6527 130.781 54.6092 131.948 52.6313C133.749 49.5913 135.782 46.1456 134.695 42.6313C133.566 38.9916 129.714 36.8467 126.316 34.9552C124.224 33.7888 122.059 32.5835 121.263 31.4051C120.442 30.182 120.307 27.9296 120.172 25.7548C119.96 22.3061 119.721 18.398 116.68 15.7786C113.639 13.1593 109.102 12.9535 105.098 12.7715C102.573 12.6551 99.9613 12.5388 98.5377 11.8288C97.1661 11.1456 95.7668 9.28102 94.4125 7.47912C92.2165 4.55251 89.7262 1.23508 85.5074 0.26253C84.7454 0.0865155 83.9453 0 83.1244 0C79.8859 0 76.8448 1.33652 73.8938 2.62828C71.5974 3.63663 69.2213 4.6778 67.4998 4.6778C65.7784 4.6778 63.4023 3.63663 61.1059 2.62828C58.1583 1.33353 55.1138 0 51.8787 0C51.0578 0 50.2577 0.0865155 49.4957 0.26253C45.2701 1.23807 42.7797 4.55549 40.5837 7.4821C39.2294 9.28401 37.8301 11.1486 36.462 11.8317C35.0419 12.5388 32.4268 12.6581 29.9018 12.7715C25.8978 12.9535 21.3604 13.1593 18.3193 15.7786C15.2782 18.398 15.0392 22.3061 14.8279 25.7518C14.6963 27.9266 14.5578 30.179 13.7369 31.4051C12.9437 32.5865 10.7789 33.7918 8.68685 34.9552C5.289 36.8467 1.43394 38.9916 0.304785 42.6342C-0.782805 46.1426 1.25383 49.5913 3.05147 52.6313C4.22219 54.6092 5.43447 56.6557 5.43447 58.1384C5.43447 59.6211 4.22565 61.6677 3.05493 63.6456C1.25383 66.6856 -0.782805 70.1313 0.308249 73.6456C1.4374 77.2852 5.289 79.4272 8.68685 81.3216C10.7789 82.4881 12.9437 83.6903 13.7369 84.8717C14.5612 86.0949 14.6963 88.3472 14.8314 90.525C15.0427 93.9707 15.2817 97.8789 18.3228 100.498C21.3639 103.118 25.9012 103.323 29.9018 103.505C31.0829 103.562 32.2709 103.619 33.362 103.735L15.867 136.384C15.2817 137.479 15.5172 138.774 16.4662 139.66C17.4222 140.549 18.8977 140.844 20.2105 140.436L35.3467 135.635L40.9232 148.669C41.4081 149.803 42.6377 150.573 44.037 150.618C44.0751 150.621 44.1201 150.62 44.1686 150.62C45.516 150.62 46.7456 149.946 47.3136 148.887L67.2816 111.629C67.3509 111.623 67.4306 111.599 67.4998 111.599C68.7156 111.599 70.2604 112.127 71.8675 112.786L86.1967 152.894C86.6089 154.048 87.7865 154.872 89.1824 154.985C89.2897 154.997 89.3971 155 89.5079 155C90.7826 155 91.9637 154.397 92.5698 153.413L100.124 141.134L114.37 147.637C115.607 148.201 117.117 148.073 118.197 147.3C119.278 146.53 119.715 145.277 119.299 144.126L104.803 103.517C104.9 103.514 105.001 103.508 105.098 103.502C109.102 103.32 113.639 103.115 116.68 100.495C119.721 97.8759 119.96 93.9678 120.172 90.5221C120.307 88.3472 120.442 86.0978 121.263 84.8717C122.056 83.6903 124.221 82.4851 126.316 81.3186C129.714 79.4272 133.566 77.2822 134.695 73.6426C135.782 70.1313 133.749 66.6856 131.948 63.6456C130.781 61.6706 129.569 59.6241 129.569 58.1384ZM67.4998 102.888C38.8519 102.888 15.5449 82.8132 15.5449 58.1384C15.5449 33.4636 38.8519 13.389 67.4998 13.389C96.1478 13.389 119.455 33.4636 119.455 58.1384C119.455 82.8132 96.1478 102.888 67.4998 102.888Z" fill="black"/>
</svg>
