<svg width="120" height="155" viewBox="0 0 120 155" fill="none" xmlns="http://www.w3.org/2000/svg">
<path d="M116.842 18.5996H104.211C102.464 18.5996 101.053 19.9884 101.053 21.6996V43.3996H18.9474V21.6996C18.9474 19.9884 17.5326 18.5996 15.7895 18.5996H3.15789C1.41474 18.5996 0 19.9884 0 21.6996V151.9C0 153.614 1.41474 155 3.15789 155H116.842C118.588 155 120 153.614 120 151.9V21.6996C120 19.9884 118.588 18.5996 116.842 18.5996ZM87.9411 66.7426L56.3621 116.343C55.9074 117.053 55.1811 117.555 54.3474 117.728C54.1295 117.775 53.9053 117.8 53.6842 117.8C53.0653 117.8 52.4558 117.62 51.9316 117.279L32.9842 104.879C31.5347 103.927 31.1432 102.005 32.1095 100.579C33.0789 99.1531 35.0337 98.7687 36.4895 99.7204L52.7305 110.35L82.5884 63.4597C83.5105 62.0058 85.4558 61.5656 86.94 62.4739C88.4147 63.3791 88.8663 65.2918 87.9411 66.7426Z" fill="black"/>
<path d="M28.4209 37.2H91.5788C93.3251 37.2 94.7367 35.8112 94.7367 34.1V9.3C94.7367 7.5888 93.3251 6.2 91.5788 6.2H68.9336C67.6293 2.5916 64.1178 0 59.9999 0C55.882 0 52.3704 2.5916 51.0662 6.2H28.4209C26.6778 6.2 25.263 7.5888 25.263 9.3V34.1C25.263 35.8112 26.6778 37.2 28.4209 37.2Z" fill="black"/>
</svg>
