<svg xmlns="http://www.w3.org/2000/svg" width="145" height="155" fill="none" viewBox="0 0 145 155"><path fill="#000" fill-rule="evenodd" d="M0 0L56.6406 55.3571H88.3594L31.7187 0H0ZM113.281 0L78.3765 34.0792L94.2358 49.5908L145 0H113.281ZM54.375 62.7381C49.3544 62.7381 45.3125 66.03 45.3125 70.119V80.3832C31.6709 87.6263 22.6562 100.153 22.6562 114.405C22.6562 136.825 44.9721 155 72.5 155C100.028 155 122.344 136.825 122.344 114.405C122.344 100.153 113.329 87.6263 99.6875 80.3832V70.119C99.6875 66.03 95.6456 62.7381 90.625 62.7381H54.375ZM72.5 90.4167L81.5625 105.179L101.953 107.024L88.3594 118.095L90.6958 134.702L72.5 127.321L54.3042 134.702L56.6406 118.095L43.0469 107.024L63.4375 105.179L72.5 90.4167Z" clip-rule="evenodd"/></svg>