<svg width="235" height="155" viewBox="0 0 235 155" fill="none" xmlns="http://www.w3.org/2000/svg">
<path d="M116.63 68.7636C131.269 68.7636 143.18 53.3425 143.18 34.3818C143.18 15.4211 131.274 0 116.63 0C101.99 0 90.0833 15.4211 90.0833 34.3818C90.0833 53.3425 101.99 68.7636 116.63 68.7636ZM116.63 86.2364C89.7526 86.2364 67.8889 114.553 67.8889 149.364C67.8889 152.481 69.8385 155 72.2407 155H161.019C163.425 155 165.37 152.481 165.37 149.364C165.37 114.553 143.507 86.2364 116.63 86.2364ZM200.185 50.7273C210.982 50.7273 219.769 39.3475 219.769 25.3636C219.769 11.3798 210.982 0 200.185 0C189.388 0 180.602 11.3798 180.602 25.3636C180.602 39.3475 189.388 50.7273 200.185 50.7273ZM200.185 59.1818C180.989 59.1818 165.37 79.4107 165.37 104.273C165.37 107.39 167.316 109.909 169.722 109.909H230.648C233.055 109.909 235 107.39 235 104.273C235 79.4107 219.381 59.1818 200.185 59.1818ZM34.8148 50.7273C45.6118 50.7273 54.3982 39.3475 54.3982 25.3636C54.3982 11.3798 45.6118 0 34.8148 0C24.0179 0 15.2315 11.3798 15.2315 25.3636C15.2315 39.3475 24.0179 50.7273 34.8148 50.7273ZM69.6296 104.273C69.6296 79.4107 54.0108 59.1818 34.8148 59.1818C15.6188 59.1818 0 79.4107 0 104.273C0 107.39 1.94963 109.909 4.35185 109.909H65.2778C67.68 109.909 69.6296 107.39 69.6296 104.273Z" fill="black"/>
</svg>
