<svg width="155" height="155" viewBox="0 0 155 155" fill="none" xmlns="http://www.w3.org/2000/svg">
<path d="M77.5 31C53.347 31 33.6957 49.0792 33.6957 71.3C33.6957 85.002 41.3951 97.8391 53.913 105.223V120.9C53.913 129.447 61.471 136.4 70.7609 136.4H84.2391C93.529 136.4 101.087 129.447 101.087 120.9V105.22C113.605 97.836 121.304 85.0051 121.304 71.3C121.304 49.0792 101.653 31 77.5 31ZM90.9783 74.4H85.6341L79.8823 79.6917C79.2252 80.2962 78.3626 80.6 77.5 80.6C76.6374 80.6 75.7748 80.2962 75.1177 79.6917L69.3659 74.4H64.0217C62.1617 74.4 60.6522 73.0112 60.6522 71.3C60.6522 69.5888 62.1617 68.2 64.0217 68.2H70.7609C71.6538 68.2 72.513 68.5255 73.1432 69.1083L77.5 73.1166L81.8568 69.1083C82.487 68.5255 83.3428 68.2 84.2391 68.2H90.9783C92.8416 68.2 94.3478 69.5888 94.3478 71.3C94.3478 73.0112 92.8416 74.4 90.9783 74.4ZM84.2391 148.8H70.7609C68.9009 148.8 67.3913 150.186 67.3913 151.9C67.3913 153.614 68.9009 155 70.7609 155H84.2391C86.1025 155 87.6087 153.614 87.6087 151.9C87.6087 150.186 86.1025 148.8 84.2391 148.8ZM10.1087 68.2H3.36957C1.50957 68.2 0 69.5888 0 71.3C0 73.0112 1.50957 74.4 3.36957 74.4H10.1087C11.9687 74.4 13.4783 73.0112 13.4783 71.3C13.4783 69.5888 11.9687 68.2 10.1087 68.2ZM151.63 68.2H144.891C143.028 68.2 141.522 69.5888 141.522 71.3C141.522 73.0112 143.028 74.4 144.891 74.4H151.63C153.494 74.4 155 73.0112 155 71.3C155 69.5888 153.494 68.2 151.63 68.2ZM77.5 12.4C79.36 12.4 80.8696 11.0112 80.8696 9.3V3.1C80.8696 1.3888 79.36 0 77.5 0C75.64 0 74.1304 1.3888 74.1304 3.1V9.3C74.1304 11.0112 75.64 12.4 77.5 12.4ZM27.4653 20.8847C26.1478 19.6726 24.0183 19.6726 22.7008 20.8847C21.3833 22.0968 21.3833 24.056 22.7008 25.2681L27.4653 29.6515C28.1224 30.256 28.985 30.5598 29.8476 30.5598C30.7102 30.5598 31.5728 30.256 32.2299 29.6515C33.5474 28.4394 33.5474 26.4802 32.2299 25.2681L27.4653 20.8847ZM127.538 20.8847L122.773 25.2681C121.456 26.4802 121.456 28.4394 122.773 29.6515C123.431 30.256 124.293 30.5598 125.156 30.5598C126.018 30.5598 126.881 30.256 127.538 29.6515L132.303 25.2681C133.62 24.056 133.62 22.0968 132.303 20.8847C130.985 19.6726 128.852 19.6726 127.538 20.8847Z" fill="black"/>
</svg>
