<svg width="145" height="155" viewBox="0 0 145 155" fill="none" xmlns="http://www.w3.org/2000/svg">
<path fill-rule="evenodd" clip-rule="evenodd" d="M62.4306 0V11.9912C65.7306 11.6048 69.0884 11.3415 72.5 11.3415C75.9116 11.3415 79.2694 11.6048 82.5694 11.9912V0H62.4306ZM72.5 18.9024C32.4594 18.9024 0 49.3689 0 86.9512C0 124.534 32.4594 155 72.5 155C112.541 155 145 124.534 145 86.9512C145 49.3689 112.541 18.9024 72.5 18.9024ZM130.903 18.9024L121.966 27.2904C127.221 31.135 131.967 35.5903 136.063 40.5221L145 32.1341L130.903 18.9024ZM71.9336 30.2439C71.9965 30.2425 72.0595 30.2425 72.1224 30.2439C72.2482 30.2384 72.3742 30.2384 72.5 30.2439C105.545 30.2439 132.917 55.9241 132.917 86.9512C132.947 88.9485 131.017 90.7855 128.889 90.7855C126.761 90.7855 124.831 88.9485 124.861 86.9512C124.861 60.1045 101.096 37.8049 72.5 37.8049C70.3911 37.9441 68.3373 36.2697 68.189 34.2902C68.0407 32.3107 69.8247 30.3831 71.9336 30.2439ZM72.5 75.6097C79.1734 75.6097 84.5833 80.6875 84.5833 86.9512C84.5833 88.6846 84.1283 90.3257 83.3876 91.795L111.582 118.258C113.129 119.64 113.172 122.232 111.67 123.657C110.168 125.082 107.407 125.071 105.918 123.634L77.7235 97.1703C76.1452 97.8799 74.3669 98.2927 72.5 98.2927C65.8266 98.2927 60.4167 93.2149 60.4167 86.9512C60.4167 80.6875 65.8266 75.6097 72.5 75.6097ZM10.0694 83.1707H22.1528C24.2807 83.1425 26.2379 84.9537 26.2379 86.9512C26.2379 88.9487 24.2807 90.76 22.1528 90.7317H10.0694C7.9553 90.7317 6.04167 88.7334 6.04167 86.9512C6.04167 85.1691 7.78403 83.1707 10.0694 83.1707ZM72.0595 130.368C74.3311 130.133 76.577 132.063 76.5278 134.207V145.549C76.5579 147.546 74.6281 149.383 72.5 149.383C70.3719 149.383 68.4421 147.546 68.4722 145.549V134.207C68.4294 132.339 70.0803 130.572 72.0595 130.368Z" fill="black"/>
</svg>
